#!OML:ASF E:\Steps\Project 1\Capture day 1\Session 2\Subject.ASF
:FULLY-SPECIFIED
:DEGREES
707
root 10.1038 20.6726 -7.31377 -157.742 -1.69313 174.526
lowerback -19.1101 -0.404246 -3.97151
upperback 1.68742 0.225979 0.897657
thorax 12.6673 -0.235032 3.33337
lowerneck -1.52988 -0.724136 -1.04484
upperneck 21.1376 -2.68 0.234834
head 6.69188 -1.98141 0.0136714
rclavicle -1.17283e-014 -7.95139e-016
rhumerus -32.4979 -12.9241 -78.4694
rradius 36.9387
rwrist -6.01167
rhand -11.1254 -50.3743
rfingers 7.12502
rthumb 14.8997 -79.8185
lclavicle -1.17283e-014 -7.95139e-016
lhumerus -33.5235 2.97528 81.174
lradius 23.0679
lwrist -5.5117
lhand -19.1428 -13.5501
lfingers 7.12502
lthumb 7.16732 16.3086
rfemur -26.8014 2.86892 18.3239
rtibia 15.1358
rfoot -20.7816 -7.27104
rtoes -31.7422
lfemur -76.0705 -2.6607 -24.0361
ltibia 82.56
lfoot -11.0526 4.57636
ltoes -37.0899
708
root 10.1052 20.6767 -7.3455 -157.904 -1.653 174.479
lowerback -18.984 -0.410521 -4.01112
upperback 1.76804 0.228451 0.892351
thorax 12.6868 -0.23621 3.35043
lowerneck -1.66165 -0.748473 -1.2021
upperneck 21.3767 -2.73788 0.266503
head 6.79503 -2.02797 0.0414674
rclavicle -6.55989e-015 -1.74931e-014
rhumerus -32.3689 -12.8018 -78.5417
rradius 36.8158
rwrist -5.97103
rhand -10.5962 -50.5102
rfingers 7.12502
rthumb 15.4094 -79.9159
lclavicle -6.55989e-015 -1.74931e-014
lhumerus -33.349 3.18059 81.1571
lradius 22.6948
lwrist -5.56346
lhand -19.1913 -13.8996
lfingers 7.12502
lthumb 7.1205 15.9607
rfemur -26.3428 2.93249 18.2839
rtibia 14.8498
rfoot -20.156 -7.31614
rtoes -31.2223
lfemur -76.2283 -2.7844 -23.9634
ltibia 81.1828
lfoot -10.9451 4.36299
ltoes -36.6784
709
root 10.108 20.6785 -7.37902 -157.983 -1.61627 174.511
lowerback -19.0596 -0.413091 -3.99826
upperback 1.89987 0.229787 0.913969
thorax 12.8834 -0.240957 3.37077
lowerneck -1.89021 -0.829482 -1.36063
upperneck 21.5831 -2.85454 0.276906
head 6.90534 -2.09901 0.0582789
rclavicle -4.77083e-015 -7.15625e-015
rhumerus -31.9192 -12.9628 -78.5462
rradius 36.3353
rwrist -5.53359
rhand -9.34987 -51.3734
rfingers 7.12502
rthumb 16.6096 -80.6827
lclavicle -4.77083e-015 -7.15625e-015
lhumerus -33.1118 3.56675 81.0972
lradius 22.4286
lwrist -5.81236
lhand -19.1433 -14.0001
lfingers 7.12502
lthumb 7.16683 15.8586
rfemur -26.009 3.02408 18.3454
rtibia 14.5695
rfoot -20.8857 -7.61846
rtoes -32.8027
lfemur -76.4087 -2.88763 -23.7553
ltibia 79.7176
lfoot -10.7692 4.01325
ltoes -36.084
710
root 10.1102 20.6773 -7.41591 -158.03 -1.52411 174.531
lowerback -19.1571 -0.343918 -4.00833
upperback 2.03194 0.337012 0.900934
thorax 13.0842 -0.197156 3.39729
lowerneck -2.0988 -0.895717 -1.61644
upperneck 21.4344 -2.95309 0.692874
head 6.9041 -2.11517 0.229306
rclavicle 9.34288e-015 -1.11319e-014
rhumerus -31.5855 -13.3379 -78.5135
rradius 36.2148
rwrist -4.89388
rhand -7.79762 -52.8904
rfingers 7.12502
rthumb 18.1036 -82.0679
lclavicle 9.34288e-015 -1.11319e-014
lhumerus -32.9743 3.72161 81.0754
lradius 22.393
lwrist -6.04625
lhand -19.2719 -14.3241
lfingers 7.12502
lthumb 7.04267 15.5387
rfemur -25.7171 3.13121 18.3907
rtibia 14.3438
rfoot -21.1309 -7.73861
rtoes -33.4593
lfemur -76.545 -2.94111 -23.576
ltibia 78.1627
lfoot -10.2663 3.58517
ltoes -33.4083
